<?xml version="1.0" encoding="iso-8859-1"?>
<!-- Generator: Adobe Illustrator 17.1.0, SVG Export Plug-In . SVG Version: 6.00 Build 0)  -->
<!DOCTYPE svg PUBLIC "-//W3C//DTD SVG 1.1//EN" "http://www.w3.org/Graphics/SVG/1.1/DTD/svg11.dtd">
<svg version="1.1" id="Capa_1" xmlns="http://www.w3.org/2000/svg" xmlns:xlink="http://www.w3.org/1999/xlink" x="0px" y="0px"
	 viewBox="0 0 195.892 195.892" style="enable-background:new 0 0 195.892 195.892;" xml:space="preserve">
<path d="M193.392,195.681H97.953c-0.005,0-0.011,0-0.015,0H2.5c-1.381,0-2.5-1.119-2.5-2.5V2.71c0-1.381,1.119-2.5,2.5-2.5h95.438
	c0.005,0,0.01,0,0.015,0h95.438c1.381,0,2.5,1.119,2.5,2.5v190.471C195.892,194.562,194.772,195.681,193.392,195.681z
	 M100.453,190.681h90.438v-90.032h-29.646c-0.966,0-1.845-0.557-2.259-1.429c-0.363-0.766-0.311-1.655,0.12-2.366
	c0.09-0.235,0.215-0.459,0.376-0.662c2.472-3.125,3.785-6.873,3.799-10.839c-0.033-9.659-7.934-17.531-17.61-17.531
	c-9.71,0-17.609,7.9-17.609,17.61c0.041,3.963,1.354,7.668,3.798,10.76c0.16,0.202,0.285,0.425,0.374,0.657
	c0.434,0.713,0.487,1.604,0.123,2.371c-0.413,0.872-1.293,1.429-2.259,1.429h-29.646v24.504c3.069-1.515,6.437-2.301,9.937-2.301
	l0.157,0.001l0.123-0.001c12.468,0,22.61,10.143,22.61,22.61s-10.143,22.61-22.61,22.61l-0.157-0.001l-0.123,0.001
	c-3.499,0-6.867-0.786-9.937-2.302V190.681z M5,190.681h90.438v-29.446c0-0.096,0.006-0.19,0.017-0.284
	c0.031-0.932,0.58-1.771,1.427-2.173c0.872-0.414,1.905-0.288,2.653,0.323c3.145,2.57,6.952,3.943,11.012,3.972
	c9.608-0.066,17.453-7.966,17.453-17.61s-7.845-17.544-17.487-17.61c-4.025,0.028-7.833,1.401-10.978,3.972
	c-0.748,0.612-1.781,0.737-2.653,0.323c-0.848-0.401-1.396-1.243-1.428-2.176c-0.01-0.093-0.016-0.187-0.016-0.281v-29.041H70.598
	c1.469,3.033,2.231,6.358,2.231,9.811v0.142c0,12.467-10.143,22.609-22.61,22.609c-12.467,0-22.609-10.143-22.609-22.609v-0.142
	c0-3.452,0.763-6.777,2.231-9.811H5V190.681z M36.784,99.038c-0.09,0.235-0.215,0.459-0.376,0.662
	c-2.472,3.125-3.785,6.873-3.799,10.839c0.033,9.659,7.934,17.531,17.609,17.531c9.677,0,17.577-7.872,17.61-17.548
	c-0.014-3.949-1.327-7.697-3.799-10.822c-0.161-0.203-0.286-0.427-0.376-0.662c-0.431-0.711-0.483-1.601-0.12-2.366
	c0.414-0.872,1.293-1.429,2.259-1.429h29.646V70.739c-3.069,1.515-6.438,2.302-9.938,2.302l-0.236-0.001
	c-12.511,0-22.653-10.143-22.653-22.609c0-12.468,10.143-22.61,22.61-22.61l0.156,0.001l0.123-0.001c3.5,0,6.868,0.786,9.938,2.302
	V5.21H5v90.032h29.646c0.966,0,1.845,0.557,2.259,1.429C37.268,97.437,37.215,98.327,36.784,99.038z M166.051,95.243h24.841V5.21
	h-90.438v29.447c0,0.096-0.006,0.19-0.016,0.284c-0.032,0.932-0.581,1.771-1.428,2.173c-0.872,0.414-1.905,0.289-2.653-0.323
	c-3.145-2.57-6.952-3.943-11.012-3.972c-9.608,0.066-17.453,7.966-17.453,17.61c0,9.611,7.816,17.511,17.424,17.609
	c4.05-0.014,7.88-1.387,11.041-3.972c0.748-0.612,1.781-0.737,2.653-0.323c0.848,0.401,1.397,1.244,1.428,2.178
	c0.01,0.092,0.016,0.186,0.016,0.28v29.04h24.841c-1.457-3.01-2.22-6.308-2.231-9.732l-0.001-0.219
	c0-12.468,10.143-22.61,22.61-22.61s22.61,10.143,22.61,22.61v0.141C168.282,88.884,167.52,92.209,166.051,95.243z"/>
<g>
</g>
<g>
</g>
<g>
</g>
<g>
</g>
<g>
</g>
<g>
</g>
<g>
</g>
<g>
</g>
<g>
</g>
<g>
</g>
<g>
</g>
<g>
</g>
<g>
</g>
<g>
</g>
<g>
</g>
</svg>
