<?xml version="1.0" standalone="no"?><!DOCTYPE svg PUBLIC "-//W3C//DTD SVG 1.1//EN" "http://www.w3.org/Graphics/SVG/1.1/DTD/svg11.dtd"><svg t="1577348992050" class="icon" viewBox="0 0 1024 1024" version="1.1" xmlns="http://www.w3.org/2000/svg" p-id="3890" xmlns:xlink="http://www.w3.org/1999/xlink" width="200" height="200"><defs><style type="text/css"></style></defs><path d="M341.333333 853.333333l106.666667 0L448 170.666667l-106.666667 0L341.333333 853.333333zM256 853.333333l42.666667 0L298.666667 170.666667l-42.666667 0L256 853.333333zM490.666667 853.333333l42.666667 0L533.333333 170.666667l-42.666667 0L490.666667 853.333333zM128 853.333333l85.333333 0L213.333333 170.666667 128 170.666667 128 853.333333zM42.666667 213.333333l0 597.333333c0 23.466667 19.2 42.666667 42.666667 42.666667L85.333333 170.666667C61.866667 170.666667 42.666667 189.866667 42.666667 213.333333zM938.666667 170.666667l-42.666667 0 0 682.666667 42.666667 0c23.466667 0 42.666667-19.2 42.666667-42.666667L981.333333 213.333333C981.333333 189.866667 962.133333 170.666667 938.666667 170.666667zM576 853.333333l42.666667 0L618.666667 170.666667l-42.666667 0L576 853.333333zM810.666667 853.333333l42.666667 0L853.333333 170.666667l-42.666667 0L810.666667 853.333333zM661.333333 853.333333l106.666667 0L768 170.666667l-106.666667 0L661.333333 853.333333z" p-id="3891"></path></svg>