<?xml version="1.0" encoding="iso-8859-1"?>
<!-- Generator: Adobe Illustrator 22.0.0, SVG Export Plug-In . SVG Version: 6.00 Build 0)  -->
<svg xmlns="http://www.w3.org/2000/svg" xmlns:xlink="http://www.w3.org/1999/xlink" version="1.1" id="Capa_1" x="0px" y="0px" viewBox="0 0 512 512" style="enable-background:new 0 0 512 512;" xml:space="preserve" width="512" height="512">
<g>
	<rect x="238.25" y="130" width="60" height="190.75"/>
	<rect x="11.25" y="130" width="60" height="190.75"/>
	<rect x="101.25" y="130" width="107" height="190.75"/>
	<polygon points="131.25,70 178.25,70 178.25,100 208.25,100 208.25,40 101.25,40 101.25,100 131.25,100  "/>
	<path d="M433.25,182.5h30V317c0,10.339,8.411,18.75,18.75,18.75s18.75-8.411,18.75-18.75V182.5c0-28.948-23.552-52.5-52.5-52.5   h-120v382h37.5V316.5h30V512h37.5V182.5z"/>
	<circle cx="380.751" cy="50" r="50"/>
</g>















</svg>
