<?xml version="1.0" encoding="utf-8"?>
<!-- Generator: Adobe Illustrator 19.2.0, SVG Export Plug-In . SVG Version: 6.00 Build 0)  -->
<svg version="1.1" id="图层_1" xmlns="http://www.w3.org/2000/svg" xmlns:xlink="http://www.w3.org/1999/xlink" x="0px" y="0px"
	 viewBox="0 0 32 32" style="enable-background:new 0 0 32 32;" xml:space="preserve">
<title></title>
<g id="Layer_2">
	<path d="M3,30h16c0.6,0,1-0.4,1-1v0.3c0,0.5,0.5,0.9,1,0.9h0.1l8-0.6c0.5,0,1-0.5,0.9-1.1L28,2.7c0-0.6-0.5-1-1.1-0.9l0,0l-7.2,0.6
		C19.5,2.1,19.3,2,19,2H3C2.4,2,2,2.4,2,3v26C2,29.6,2.4,30,3,30z M26.1,3.8L28,27.7l-6,0.5L20.1,4.3L26.1,3.8z M18,28h-6V4h6V28z
		 M4,4h6v24H4V4z"/>
	<path d="M7,6C6.4,6,6,6.4,6,7v12c0,0.6,0.4,1,1,1s1-0.4,1-1V7C8,6.4,7.6,6,7,6z"/>
	<path d="M7,22c-0.6,0-1,0.4-1,1v1c0,0.6,0.4,1,1,1s1-0.4,1-1v-1C8,22.4,7.6,22,7,22z"/>
	<path d="M15,20c0.6,0,1-0.4,1-1V7c0-0.6-0.4-1-1-1s-1,0.4-1,1v12C14,19.6,14.4,20,15,20z"/>
	<path d="M15,25c0.6,0,1-0.4,1-1v-1c0-0.6-0.4-1-1-1s-1,0.4-1,1v1C14,24.6,14.4,25,15,25z"/>
	<path d="M24.2,20L24.2,20c0.6,0,1-0.5,1-1.1l-0.9-12c0-0.6-0.5-1-1.1-0.9s-1,0.5-0.9,1.1l0.9,12C23.3,19.6,23.7,20,24.2,20z"/>
	<path d="M24.5,22c-0.6,0-1,0.5-0.9,1.1l0,0l0.1,1c0,0.5,0.5,0.9,1,0.9h0.1c0.6,0,1-0.5,0.9-1.1l0,0l-0.1-1C25.5,22.4,25,22,24.5,22
		L24.5,22z"/>
</g>
</svg>
