<?xml version="1.0" encoding="iso-8859-1"?>
<!-- Generator: Adobe Illustrator 18.0.0, SVG Export Plug-In . SVG Version: 6.00 Build 0)  -->
<!DOCTYPE svg PUBLIC "-//W3C//DTD SVG 1.1//EN" "http://www.w3.org/Graphics/SVG/1.1/DTD/svg11.dtd">
<svg version="1.1" id="Capa_1" xmlns="http://www.w3.org/2000/svg" xmlns:xlink="http://www.w3.org/1999/xlink" x="0px" y="0px"
	 viewBox="0 0 490 490" style="enable-background:new 0 0 490 490;" xml:space="preserve">
<g>
	<path d="M484.093,157.57L250.691,26.172c-3.47-1.953-7.913-1.953-11.383,0L5.909,157.57C2.265,159.622,0,163.496,0,167.679v297.614
		h57.535V215.971h374.93v249.322H490V167.679C490,163.496,487.735,159.623,484.093,157.57z M162.495,175.52
		c0,2.777-2.251,5.029-5.031,5.029h-46.283c-2.779,0-5.031-2.252-5.031-5.029v-14.087c0-2.779,2.251-5.03,5.031-5.03h46.283
		c2.779,0,5.031,2.251,5.031,5.03V175.52z M273.173,175.52c0,2.777-2.253,5.029-5.032,5.029h-46.281
		c-2.779,0-5.032-2.252-5.032-5.029v-14.087c0-2.779,2.253-5.03,5.032-5.03h46.281c2.779,0,5.032,2.251,5.032,5.03V175.52z
		 M383.85,175.52c0,2.777-2.25,5.029-5.029,5.029h-46.284c-2.779,0-5.032-2.252-5.032-5.029v-14.087c0-2.779,2.253-5.03,5.032-5.03
		h46.284c2.779,0,5.029,2.251,5.029,5.03V175.52z"/>
	<path d="M400.744,251.986H89.257c-1.944,0-3.522,1.577-3.522,3.521v26.894c0,1.945,1.578,3.523,3.522,3.523h311.487
		c1.943,0,3.521-1.577,3.521-3.523v-26.894C404.265,253.563,402.688,251.986,400.744,251.986z"/>
	<path d="M400.744,312.203H89.257c-1.944,0-3.522,1.576-3.522,3.521v26.895c0,1.945,1.578,3.522,3.522,3.522h311.487
		c1.943,0,3.521-1.576,3.521-3.522v-26.895C404.265,313.779,402.688,312.203,400.744,312.203z"/>
	<path d="M400.744,372.418H89.257c-1.944,0-3.522,1.576-3.522,3.521v26.897c0,1.944,1.578,3.52,3.522,3.52h311.487
		c1.943,0,3.521-1.575,3.521-3.52v-26.897C404.265,373.994,402.688,372.418,400.744,372.418z"/>
</g>
<g>
</g>
<g>
</g>
<g>
</g>
<g>
</g>
<g>
</g>
<g>
</g>
<g>
</g>
<g>
</g>
<g>
</g>
<g>
</g>
<g>
</g>
<g>
</g>
<g>
</g>
<g>
</g>
<g>
</g>
</svg>
