<?xml version="1.0" encoding="iso-8859-1"?>
<!-- Generator: Adobe Illustrator 16.0.0, SVG Export Plug-In . SVG Version: 6.00 Build 0)  -->
<!DOCTYPE svg PUBLIC "-//W3C//DTD SVG 1.1//EN" "http://www.w3.org/Graphics/SVG/1.1/DTD/svg11.dtd">
<svg version="1.1" id="Capa_1" xmlns="http://www.w3.org/2000/svg" xmlns:xlink="http://www.w3.org/1999/xlink" x="0px" y="0px"
	 width="39.331px" height="39.33px" viewBox="0 0 39.331 39.33" style="enable-background:new 0 0 39.331 39.33;"
	 xml:space="preserve">
<g>
	<path d="M39.309,15.327c-0.099-0.471-0.5-0.816-0.979-0.841l-6.431-0.338c-0.065-0.004-0.132,0-0.196,0.009l-5.06-2.518
		c-0.145,0.343-0.354,0.663-0.627,0.937l-0.743,0.742l3.992,1.987l-10.312,5.132L8.952,15.458l3.399-1.692l-1.192-1.192
		c-0.168-0.168-0.312-0.354-0.431-0.551l-3.956,1.969l-3.763-3.021l10.557-5.253v-2.31c-0.101,0.017-0.2,0.048-0.295,0.095
		L0.586,9.815c-0.323,0.16-0.541,0.474-0.58,0.833s0.109,0.712,0.389,0.937l4.934,3.96v16.024c0,0.4,0.227,0.769,0.586,0.945
		l12.683,6.313c0.148,0.072,0.31,0.109,0.471,0.109c0.161,0,0.323-0.037,0.471-0.109l12.686-6.312
		c0.358-0.18,0.586-0.545,0.586-0.945V19.438l5.933-2.952C39.173,16.273,39.406,15.796,39.309,15.327z M18.016,36.176l-10.569-5.26
		V17.072l10.569,5.26V36.176z M25.369,20.783l-1.926-0.101l8.783-4.373c0.017-0.008,0.029-0.018,0.045-0.027l1.933,0.102
		L25.369,20.783z M24.708,11.268l-5.374,5.373c-0.206,0.207-0.477,0.31-0.747,0.31s-0.541-0.103-0.748-0.31l-5.373-5.373
		c-0.302-0.302-0.393-0.757-0.229-1.151c0.164-0.395,0.549-0.652,0.977-0.652h2.202V1.45c0-0.584,0.474-1.057,1.057-1.057h4.229
		c0.584,0,1.058,0.473,1.058,1.057v8.015h2.201c0.429,0,0.812,0.257,0.978,0.652C25.101,10.51,25.011,10.965,24.708,11.268z"/>
</g>
<g>
</g>
<g>
</g>
<g>
</g>
<g>
</g>
<g>
</g>
<g>
</g>
<g>
</g>
<g>
</g>
<g>
</g>
<g>
</g>
<g>
</g>
<g>
</g>
<g>
</g>
<g>
</g>
<g>
</g>
</svg>
