<?xml version="1.0" encoding="iso-8859-1"?>
<!-- Generator: Adobe Illustrator 19.0.0, SVG Export Plug-In . SVG Version: 6.00 Build 0)  -->
<svg version="1.1" id="Capa_1" xmlns="http://www.w3.org/2000/svg" xmlns:xlink="http://www.w3.org/1999/xlink" x="0px" y="0px"
	 viewBox="0 0 60 60" style="enable-background:new 0 0 60 60;" xml:space="preserve">
<g>
	<path d="M0,0.5v59h60v-59H0z M58,57.5H2v-55h56V57.5z"/>
	<path d="M12,11.5h35c0.553,0,1-0.447,1-1s-0.447-1-1-1H12c-0.553,0-1,0.447-1,1S11.447,11.5,12,11.5z"/>
	<path d="M12,18.5h35c0.553,0,1-0.447,1-1s-0.447-1-1-1H12c-0.553,0-1,0.447-1,1S11.447,18.5,12,18.5z"/>
	<path d="M47,25.5H30c-0.553,0-1,0.447-1,1s0.447,1,1,1h17c0.553,0,1-0.447,1-1S47.553,25.5,47,25.5z"/>
	<path d="M47,32.5H30c-0.553,0-1,0.447-1,1s0.447,1,1,1h17c0.553,0,1-0.447,1-1S47.553,32.5,47,32.5z"/>
	<path d="M47,41.5H12c-0.553,0-1,0.447-1,1s0.447,1,1,1h35c0.553,0,1-0.447,1-1S47.553,41.5,47,41.5z"/>
	<path d="M47,48.5H12c-0.553,0-1,0.447-1,1s0.447,1,1,1h35c0.553,0,1-0.447,1-1S47.553,48.5,47,48.5z"/>
	<path d="M15,38.674l9.536-8.174L15,22.326V26.5H7v8h8V38.674z M9,32.5v-4h8v-1.826l4.464,3.826L17,34.326V32.5H9z"/>
</g>
<g>
</g>
<g>
</g>
<g>
</g>
<g>
</g>
<g>
</g>
<g>
</g>
<g>
</g>
<g>
</g>
<g>
</g>
<g>
</g>
<g>
</g>
<g>
</g>
<g>
</g>
<g>
</g>
<g>
</g>
</svg>
