<?xml version="1.0" standalone="no"?><!DOCTYPE svg PUBLIC "-//W3C//DTD SVG 1.1//EN" "http://www.w3.org/Graphics/SVG/1.1/DTD/svg11.dtd"><svg t="1577345006181" class="icon" viewBox="0 0 1024 1024" version="1.1" xmlns="http://www.w3.org/2000/svg" p-id="3457" xmlns:xlink="http://www.w3.org/1999/xlink" width="200" height="200"><defs><style type="text/css"></style></defs><path d="M916 248H777.5V97.2H246.6V248H108c-24.1 0-43.6 19.5-43.6 43.6v370h182.1v63.1l202.1 202.1h328.8v-263h182V291.6c0.1-24-19.4-43.6-43.4-43.6z m-618.1-99.5h428.3V248H297.9v-99.5z m530.4 444h-50.7V491.1h-51.3v384.4H515.8c-76.2 0-39.5-180.6-39.5-180.6S300.2 737.7 297.9 657V491.1h-51.3v99.4h-50.8V417.6h632.5v174.9z m36.5-237.6c-19.2 0-34.8-15.6-34.9-34.8 0-19.2 15.6-34.8 34.9-34.8 19.2 0 34.8 15.6 34.8 34.9 0 19.1-15.5 34.7-34.8 34.7z" p-id="3458"></path><path d="M359.4 601.4h294.8v51.3H359.4zM359.4 498.2h294.8v51.3H359.4z" p-id="3459"></path></svg>