<?xml version="1.0" standalone="no"?><!DOCTYPE svg PUBLIC "-//W3C//DTD SVG 1.1//EN" "http://www.w3.org/Graphics/SVG/1.1/DTD/svg11.dtd"><svg t="1583652358054" class="icon" viewBox="0 0 1024 1024" version="1.1" xmlns="http://www.w3.org/2000/svg" p-id="1181" xmlns:xlink="http://www.w3.org/1999/xlink" width="200" height="200"><defs><style type="text/css"></style></defs><path d="M512.000918 512.002367c-125.269475 0-229.797147-90.437931-251.744912-209.455496 14.62756-10.295643 24.192651-27.289237 24.192651-46.535061 0-31.419242-25.468364-56.894948-56.887606-56.894948-31.419242 0-56.887606 25.475706-56.887606 56.894948 0 22.766423 13.386723 42.405055 32.709639 51.489231 24.629514 148.107485 153.63435 261.388932 308.625176 261.388932 154.983484 0 283.988319-113.281447 308.617833-261.388932 19.322917-9.084175 32.702297-28.722808 32.702297-51.489231 0-31.419242-25.461021-56.894948-56.880264-56.894948s-56.894948 25.475706-56.894948 56.894948c0 19.245824 9.572433 36.24676 24.199994 46.535061C741.79623 421.571778 637.277735 512.002367 512.000918 512.002367L512.000918 512.002367zM910.215997 0.01024l-28.408928 0c-0.007342 0-0.022027 0-0.036712 0L682.663736 0.01024c-0.007342 0-0.022027 0-0.036712 0l-3.549969 0c0.022027 0.078929 0.042218 0.1652 0.056902 0.24413-14.038346 1.734602-24.915861 13.687754-24.915861 28.199674 0 14.51192 10.877515 26.465071 24.915861 28.199674-0.022027 0.086271-0.036712 0.1652-0.056902 0.24413l231.137105 0c31.36234 0 56.894948 25.532609 56.894948 56.887606l0 796.439336c0 31.36234-25.532609 56.887606-56.894948 56.887606L113.784003 967.112394c-31.36234 0-56.887606-25.525266-56.887606-56.887606L56.896397 113.785452c0-31.354997 25.525266-56.887606 56.887606-56.887606L316.477305 56.897846c-0.022027-0.078929-0.034876-0.157858-0.056902-0.24413 14.038346-1.734602 24.915861-13.687754 24.915861-28.199674 0-14.51192-10.877515-26.465071-24.915861-28.199674 0.014685-0.086271 0.034876-0.1652 0.056902-0.24413l-3.548134 0c-0.014685 0-0.022027 0-0.036712 0L113.784003 0.01024c-0.027534 0-0.049561 0-0.071586 0C50.995079 0.052457 0.008791 51.060772 0.008791 113.785452l0 796.439336c0 62.746707 51.022999 113.775212 113.775212 113.775212l796.431993 0c62.754048 0 113.775212-51.030342 113.775212-113.775212L1023.991209 113.785452C1023.991209 51.033239 972.970045 0.01024 910.215997 0.01024L910.215997 0.01024zM910.215997 0.01024" p-id="1182"></path></svg>