<?xml version="1.0" standalone="no"?><!DOCTYPE svg PUBLIC "-//W3C//DTD SVG 1.1//EN" "http://www.w3.org/Graphics/SVG/1.1/DTD/svg11.dtd"><svg t="1584612687412" class="icon" viewBox="0 0 1024 1024" version="1.1" xmlns="http://www.w3.org/2000/svg" p-id="3026" xmlns:xlink="http://www.w3.org/1999/xlink" width="200" height="200"><defs><style type="text/css"></style></defs><path d="M909.061224 185.469388h-323.918367c-11.493878 0-20.897959-9.404082-20.897959-20.897959s9.404082-20.897959 20.897959-20.89796h323.918367c11.493878 0 20.897959 9.404082 20.89796 20.89796s-9.404082 20.897959-20.89796 20.897959zM909.061224 415.346939h-323.918367c-11.493878 0-20.897959-9.404082-20.897959-20.897959s9.404082-20.897959 20.897959-20.89796h323.918367c11.493878 0 20.897959 9.404082 20.89796 20.89796s-9.404082 20.897959-20.89796 20.897959z" p-id="3027"></path><path d="M909.061224 640h-323.918367c-11.493878 0-20.897959-9.404082-20.897959-20.897959s9.404082-20.897959 20.897959-20.897959h323.918367c11.493878 0 20.897959 9.404082 20.89796 20.897959s-9.404082 20.897959-20.89796 20.897959zM909.061224 869.877551h-323.918367c-11.493878 0-20.897959-9.404082-20.897959-20.897959s9.404082-20.897959 20.897959-20.897959h323.918367c11.493878 0 20.897959 9.404082 20.89796 20.897959s-9.404082 20.897959-20.89796 20.897959z" p-id="3028"></path><path d="M391.836735 470.204082H177.632653c-45.97551 0-83.591837-37.616327-83.591837-83.591837V172.408163c0-45.97551 37.616327-83.591837 83.591837-83.591836h214.204082c45.97551 0 83.591837 37.616327 83.591836 83.591836v214.204082c0 45.97551-37.616327 83.591837-83.591836 83.591837zM177.632653 130.612245c-22.987755 0-41.795918 18.808163-41.795918 41.795918v214.204082c0 22.987755 18.808163 41.795918 41.795918 41.795918h214.204082c22.987755 0 41.795918-18.808163 41.795918-41.795918V172.408163c0-22.987755-18.808163-41.795918-41.795918-41.795918H177.632653z" p-id="3029"></path><path d="M391.836735 924.734694H177.632653c-45.97551 0-83.591837-37.616327-83.591837-83.591837v-214.204081c0-45.97551 37.616327-83.591837 83.591837-83.591837h214.204082c45.97551 0 83.591837 37.616327 83.591836 83.591837v214.204081c0 45.97551-37.616327 83.591837-83.591836 83.591837z m-214.204082-339.591837c-22.987755 0-41.795918 18.808163-41.795918 41.795919v214.204081c0 22.987755 18.808163 41.795918 41.795918 41.795919h214.204082c22.987755 0 41.795918-18.808163 41.795918-41.795919v-214.204081c0-22.987755-18.808163-41.795918-41.795918-41.795919H177.632653z" p-id="3030"></path></svg>