<?xml version="1.0" encoding="iso-8859-1"?>
<!-- Generator: Adobe Illustrator 18.0.0, SVG Export Plug-In . SVG Version: 6.00 Build 0)  -->
<!DOCTYPE svg PUBLIC "-//W3C//DTD SVG 1.1//EN" "http://www.w3.org/Graphics/SVG/1.1/DTD/svg11.dtd">
<svg version="1.1" id="Capa_1" xmlns="http://www.w3.org/2000/svg" xmlns:xlink="http://www.w3.org/1999/xlink" x="0px" y="0px"
	 viewBox="0 0 230.378 230.378" style="enable-background:new 0 0 230.378 230.378;" xml:space="preserve">
<path d="M228.099,200.324l-30.435-30.268V80.883h24.83c0.005,0,0.012,0,0.021,0c4.142,0,7.5-3.156,7.5-7.299
	c0-0.898-0.158-1.66-0.448-2.458l-16.167-57.78c-0.906-3.24-3.858-5.463-7.223-5.463H23.817c-3.364,0-6.316,2.273-7.223,5.513
	L0.277,71.748c-0.632,2.26-0.17,4.492,1.248,6.361c1.418,1.869,3.629,2.773,5.975,2.773h24.164V198.32
	c0,1.989,0.966,3.896,2.375,5.304c1.406,1.406,3.402,2.196,5.391,2.196l41.846-0.002c4.143,0,7.389-3.358,7.389-7.5v-84.436h27.007
	c-5.86,7.243-9.05,16.197-9.05,25.644c0,10.916,4.085,21.179,11.804,28.897c6.165,6.166,14.239,10.111,22.239,11.453v18.441
	c0,4.143,3.712,7.564,7.855,7.564h41.958c1.001,0,1.956-0.203,2.831-0.565L208.29,220.3c1.464,1.464,3.383,2.196,5.303,2.196
	c1.919,0,3.839-0.732,5.303-2.196l9.369-9.368c1.407-1.406,2.114-3.314,2.114-5.304
	C230.378,203.638,229.505,201.731,228.099,200.324z M29.508,22.883h170.979l12.122,43H17.386L29.508,22.883z M121.621,139.526
	c0-6.909,2.691-13.405,7.577-18.291c4.887-4.886,11.383-7.576,18.293-7.576c6.91,0,13.406,2.69,18.293,7.576
	c4.886,4.886,7.577,11.382,7.577,18.292c0,6.909-2.691,13.406-7.577,18.292c-4.887,4.886-11.383,7.576-18.293,7.576
	c-6.91,0-13.406-2.691-18.293-7.578C124.312,152.931,121.621,146.435,121.621,139.526z"/>
<g>
</g>
<g>
</g>
<g>
</g>
<g>
</g>
<g>
</g>
<g>
</g>
<g>
</g>
<g>
</g>
<g>
</g>
<g>
</g>
<g>
</g>
<g>
</g>
<g>
</g>
<g>
</g>
<g>
</g>
</svg>
