<?xml version="1.0" encoding="iso-8859-1"?>
<!-- Generator: Adobe Illustrator 16.0.0, SVG Export Plug-In . SVG Version: 6.00 Build 0)  -->
<!DOCTYPE svg PUBLIC "-//W3C//DTD SVG 1.1//EN" "http://www.w3.org/Graphics/SVG/1.1/DTD/svg11.dtd">
<svg version="1.1" id="Capa_1" xmlns="http://www.w3.org/2000/svg" xmlns:xlink="http://www.w3.org/1999/xlink" x="0px" y="0px"
	 width="228.234px" height="228.234px" viewBox="0 0 228.234 228.234" style="enable-background:new 0 0 228.234 228.234;"
	 xml:space="preserve">
<g>
	<g>
		<path d="M94.645,136.746c-1.369-1.369-3.584-1.369-4.954,0l-48.99,48.991c-1.371,1.369-1.371,3.583,0,4.956
			c0.683,0.681,1.58,1.026,2.476,1.026c0.898,0,1.795-0.346,2.478-1.026l48.99-48.992C96.016,140.333,96.016,138.115,94.645,136.746
			z"/>
		<path d="M84.736,126.832c-1.371-1.369-3.585-1.369-4.955,0l-48.994,48.991c-1.371,1.369-1.371,3.584,0,4.956
			c0.683,0.681,1.58,1.026,2.478,1.026c0.897,0,1.793-0.346,2.478-1.026l48.993-48.988
			C86.105,130.422,86.105,128.204,84.736,126.832z"/>
		<path d="M98.363,145.421L49.37,194.409c-1.369,1.373-1.369,3.587,0,4.955c0.685,0.685,1.581,1.027,2.478,1.027
			c0.898,0,1.795-0.343,2.478-1.027l48.993-48.984c1.371-1.372,1.371-3.586,0-4.955C101.95,144.053,99.73,144.053,98.363,145.421z"
			/>
		<path d="M198.715,47.198c4.209,0,8.172-1.639,11.132-4.604c0.791-0.773,1.492-1.661,2.149-2.705l15.499-19.933
			c1.088-1.395,0.962-3.377-0.287-4.628L214.823,2.936c-1.249-1.247-3.241-1.374-4.631-0.291l-19.934,15.506
			c-1.04,0.655-1.923,1.356-2.693,2.132c-2.984,2.977-4.62,6.935-4.62,11.149c0,3.015,0.873,5.884,2.443,8.372l-61.264,61.262
			l-16.109-16.108c-0.541-0.541-1.22-0.804-1.922-0.919L85.318,63.262c5.217-15.66,1.141-33.178-10.517-44.833
			C66.53,10.159,55.535,5.602,43.838,5.602c-5.727,0-11.309,1.095-16.59,3.25c-1.086,0.441-1.877,1.401-2.113,2.551
			c-0.231,1.153,0.13,2.341,0.957,3.171l20.22,20.22l-0.864,16.24l-16.24,0.865l-20.22-20.22c-0.83-0.832-2.018-1.189-3.17-0.956
			c-1.153,0.23-2.11,1.023-2.551,2.113c-6.684,16.382-2.919,35.043,9.583,47.542c8.242,8.246,19.21,12.783,30.887,12.783
			c4.759,0,9.419-0.802,13.913-2.299l19.752,19.754l-55.908,55.916c-11.61,11.615-11.61,30.513,0,42.127
			c5.629,5.623,13.11,8.72,21.065,8.72c7.955,0,15.432-3.097,21.057-8.72l55.918-55.911l16.426,16.43
			c-4.959,15.533-0.849,32.791,10.685,44.32c8.268,8.271,19.27,12.826,30.967,12.826c5.722,0,11.304-1.095,16.58-3.247
			c1.089-0.441,1.879-1.396,2.115-2.55c0.229-1.153-0.127-2.344-0.958-3.172l-20.222-20.222l0.866-16.238l16.237-0.866
			l20.222,20.222c0.832,0.828,2.006,1.188,3.173,0.958c1.149-0.232,2.107-1.026,2.549-2.118c6.681-16.385,2.916-35.046-9.582-47.541
			c-8.247-8.25-19.215-12.788-30.892-12.788c-4.945,0-9.78,0.866-14.451,2.488c-0.079-0.1-0.147-0.213-0.236-0.305l-16.896-16.899
			c-0.12-0.718-0.397-1.399-0.917-1.923l-16.118-16.101l61.263-61.262C192.839,46.326,195.707,47.198,198.715,47.198z
			 M17.811,75.423C8.612,66.224,5.044,53.05,8.077,40.671l17.285,17.287c0.705,0.704,1.694,1.078,2.664,1.023l20.945-1.116
			c1.787-0.094,3.217-1.523,3.311-3.311l1.114-20.945c0.053-0.992-0.318-1.962-1.023-2.663L35.088,13.66
			c2.849-0.695,5.774-1.045,8.75-1.045c9.825,0,19.063,3.828,26.009,10.772c9.941,9.938,13.329,24.961,8.641,38.257
			c-0.063,0.174-0.14,0.344-0.214,0.511l-0.284,0.679c-0.003,0.012-0.01,0.019-0.014,0.029c-1.885,4.818-4.621,9.048-8.136,12.56
			c-3.236,3.234-7.041,5.816-11.375,7.701c-0.224,0.103-0.455,0.187-0.688,0.274l-0.472,0.178c-0.007,0.005-0.014,0.012-0.024,0.015
			c-4.326,1.699-8.88,2.562-13.542,2.562C33.941,86.156,24.732,82.344,17.811,75.423z M64.765,87.842
			c1.651-0.894,3.217-1.91,4.731-3c0.348-0.25,0.683-0.508,1.02-0.765c1.496-1.148,2.946-2.357,4.286-3.696
			c1.345-1.347,2.562-2.811,3.715-4.324c0.286-0.38,0.56-0.765,0.833-1.153c0.939-1.321,1.809-2.698,2.598-4.132
			c0.115-0.207,0.265-0.388,0.375-0.595l17.763,17.763l-7.637,7.633c-0.659,0.659-1.027,1.549-1.027,2.478
			c0,0.933,0.368,1.822,1.027,2.481c0.578,0.578,1.023,1.25,1.364,1.969c0.438,0.924,0.689,1.93,0.689,2.982
			c0,0.809-0.161,1.586-0.422,2.329c-0.04,0.117-0.06,0.24-0.106,0.354c-0.007,0.019-0.017,0.036-0.027,0.053
			c-0.347,0.816-0.845,1.571-1.494,2.218c-0.419,0.421-0.903,0.758-1.405,1.052c-0.141,0.081-0.284,0.158-0.431,0.228
			c-0.416,0.207-0.854,0.365-1.311,0.488c-0.104,0.027-0.207,0.073-0.311,0.091l-24.37-24.366
			C64.677,87.901,64.72,87.866,64.765,87.842z M58.661,203.7c-4.3,4.302-10.02,6.667-16.103,6.667
			c-6.086,0-11.806-2.368-16.11-6.667c-8.879-8.88-8.879-23.328,0-32.213l53.935-53.933c2.124,1.239,4.598,1.902,7.306,1.916
			c0.011,0,0.018,0.007,0.029,0.007c0.021,0,0.038,0,0.058,0c0.003,0,0.012,0,0.016,0c3.643-0.078,7.063-1.529,9.618-4.086
			c2.65-2.645,4.108-6.163,4.108-9.905c0-0.638-0.043-1.266-0.126-1.886c-0.245-1.861-0.862-3.638-1.812-5.239l5.463-5.463
			l32.209,32.206l-5.462,5.466c-5.277-3.135-12.59-2.279-17.03,2.166c-2.558,2.553-4.009,5.975-4.086,9.616c0,0.003,0,0.003,0,0.007
			v0.004v0.003c-0.053,2.655,0.616,5.191,1.92,7.405L58.661,203.7z M177.689,145.773c9.804,0,19.017,3.812,25.937,10.735
			c9.198,9.199,12.765,22.371,9.735,34.752l-17.292-17.292c-0.698-0.705-1.659-1.064-2.662-1.023l-20.947,1.116
			c-1.79,0.092-3.22,1.526-3.312,3.312l-1.116,20.947c-0.051,0.992,0.318,1.961,1.023,2.662l17.285,17.292
			c-2.844,0.688-5.766,1.04-8.736,1.04c-9.828,0-19.064-3.829-26.016-10.772c-9.941-9.938-13.329-24.958-8.641-38.257
			c0.072-0.198,0.154-0.383,0.236-0.571l0.273-0.649c1.886-4.833,4.62-9.056,8.138-12.563c3.228-3.233,7.029-5.813,11.311-7.679
			l1.219-0.479C168.463,146.64,173.021,145.773,177.689,145.773z M145.65,149.363c-3.326,3.323-6.07,7.187-8.154,11.44
			l-19.655-19.664c0.003-0.01,0.01-0.02,0.014-0.03c0.126-0.575,0.344-1.116,0.607-1.636c0.058-0.116,0.118-0.229,0.185-0.342
			c0.298-0.514,0.644-1.007,1.071-1.435c2.648-2.648,7.262-2.648,9.91,0c0.302,0.302,0.657,0.51,1.021,0.675
			c0.041,0.023,0.075,0.062,0.112,0.075c1.273,0.523,2.789,0.28,3.823-0.753l7.631-7.635l12.412,12.415
			C151.332,144.378,148.327,146.684,145.65,149.363z M192.531,25.233c0.424-0.43,0.94-0.827,1.581-1.222
			c0.103-0.067,0.212-0.141,0.312-0.218l17.631-13.716l8.011,8.018l-13.709,17.633c-0.079,0.098-0.15,0.207-0.219,0.313
			c-0.391,0.637-0.787,1.148-1.226,1.58c-3.312,3.307-9.075,3.307-12.388,0c-1.66-1.655-2.567-3.855-2.567-6.192
			C189.954,29.092,190.864,26.891,192.531,25.233z"/>
	</g>
</g>
<g>
</g>
<g>
</g>
<g>
</g>
<g>
</g>
<g>
</g>
<g>
</g>
<g>
</g>
<g>
</g>
<g>
</g>
<g>
</g>
<g>
</g>
<g>
</g>
<g>
</g>
<g>
</g>
<g>
</g>
</svg>
