<?xml version="1.0" encoding="iso-8859-1"?>
<!-- Generator: Adobe Illustrator 19.0.0, SVG Export Plug-In . SVG Version: 6.00 Build 0)  -->
<svg version="1.1" id="Capa_1" xmlns="http://www.w3.org/2000/svg" xmlns:xlink="http://www.w3.org/1999/xlink" x="0px" y="0px"
	 viewBox="0 0 60 60" style="enable-background:new 0 0 60 60;" xml:space="preserve">
<g>
	<path d="M0,0.5v59h60v-59H0z M58,57.5H2v-55h56V57.5z"/>
	<path d="M13,11.5h35c0.553,0,1-0.447,1-1s-0.447-1-1-1H13c-0.553,0-1,0.447-1,1S12.447,11.5,13,11.5z"/>
	<path d="M13,18.5h35c0.553,0,1-0.447,1-1s-0.447-1-1-1H13c-0.553,0-1,0.447-1,1S12.447,18.5,13,18.5z"/>
	<path d="M13,27.5h17c0.553,0,1-0.447,1-1s-0.447-1-1-1H13c-0.553,0-1,0.447-1,1S12.447,27.5,13,27.5z"/>
	<path d="M13,34.5h17c0.553,0,1-0.447,1-1s-0.447-1-1-1H13c-0.553,0-1,0.447-1,1S12.447,34.5,13,34.5z"/>
	<path d="M13,43.5h35c0.553,0,1-0.447,1-1s-0.447-1-1-1H13c-0.553,0-1,0.447-1,1S12.447,43.5,13,43.5z"/>
	<path d="M13,50.5h35c0.553,0,1-0.447,1-1s-0.447-1-1-1H13c-0.553,0-1,0.447-1,1S12.447,50.5,13,50.5z"/>
	<path d="M45,22.326L35.464,30.5L45,38.674V34.5h8v-8h-8V22.326z M51,28.5v4h-8v1.826L38.536,30.5L43,26.674V28.5H51z"/>
</g>
<g>
</g>
<g>
</g>
<g>
</g>
<g>
</g>
<g>
</g>
<g>
</g>
<g>
</g>
<g>
</g>
<g>
</g>
<g>
</g>
<g>
</g>
<g>
</g>
<g>
</g>
<g>
</g>
<g>
</g>
</svg>
