<?xml version="1.0" encoding="utf-8"?>
<!-- Generator: Adobe Illustrator 16.0.0, SVG Export Plug-In . SVG Version: 6.00 Build 0)  -->
<!DOCTYPE svg PUBLIC "-//W3C//DTD SVG 1.1//EN" "http://www.w3.org/Graphics/SVG/1.1/DTD/svg11.dtd">
<svg version="1.1" id="Layer_1" xmlns="http://www.w3.org/2000/svg" xmlns:xlink="http://www.w3.org/1999/xlink" x="0px" y="0px"
	 width="300px" height="300px" viewBox="0 0 300 300" enable-background="new 0 0 300 300" xml:space="preserve">
<g>
	<path d="M119.46,83.809c-2.351-2.041-5.856-2.041-8.207,0L37.09,147.804c-1.379,1.188-2.171,2.932-2.171,4.756v92.508
		c0,3.47,2.814,6.284,6.284,6.284h148.319c3.47,0,6.29-2.814,6.29-6.284V152.56c0-1.824-0.798-3.568-2.177-4.756L119.46,83.809z
		 M115.354,96.871l67.879,58.571v31.054H47.486v-31.054L115.354,96.871z M72.98,222.61v-22.983c0-3.476,2.809-6.284,6.29-6.284
		h22.965c3.476,0,6.284,2.809,6.284,6.284v22.983c0,3.47-2.809,6.283-6.284,6.283H79.271C75.789,228.894,72.98,226.08,72.98,222.61z
		 M122.2,222.61v-22.983c0-3.476,2.808-6.284,6.284-6.284h22.964c3.482,0,6.284,2.809,6.284,6.284v22.983
		c0,3.47-2.802,6.283-6.284,6.283h-22.964C125.008,228.894,122.2,226.08,122.2,222.61z"/>
	<path d="M121.508,50.924c-3.538-3.031-8.771-3.031-12.296,0l-98.427,84.628c-3.952,3.389-4.397,9.352-1.008,13.291
		c1.868,2.177,4.509,3.29,7.162,3.29c2.171,0,4.366-0.754,6.136-2.282l92.278-79.346l92.297,79.346
		c3.952,3.408,9.902,2.957,13.291-1.008c3.396-3.939,2.951-9.902-1.002-13.291L121.508,50.924z"/>
	<path d="M79.271,179.662h22.965c3.476,0,6.284-2.82,6.284-6.29v-22.983c0-3.47-2.809-6.283-6.284-6.283H79.271
		c-3.481,0-6.29,2.813-6.29,6.283v22.983C72.98,176.842,75.789,179.662,79.271,179.662z"/>
	<path d="M128.484,179.662h22.964c3.482,0,6.284-2.82,6.284-6.29v-22.983c0-3.47-2.802-6.283-6.284-6.283h-22.964
		c-3.477,0-6.284,2.813-6.284,6.283v22.983C122.2,176.842,125.008,179.662,128.484,179.662z"/>
	<path d="M289.582,91.292L259.14,54.746c-4.774-5.74-14.534-5.74-19.31,0l-30.454,36.546c-4.446,5.325-3.724,13.255,1.614,17.701
		c5.332,4.447,13.261,3.724,17.701-1.607l8.227-9.878v141.27c0,6.939,5.621,12.574,12.561,12.574c6.946,0,12.58-5.635,12.58-12.574
		V97.508l8.221,9.878c2.486,2.987,6.055,4.521,9.666,4.521c2.827,0,5.685-0.958,8.041-2.913
		C293.312,104.547,294.029,96.617,289.582,91.292z"/>
</g>
</svg>
