<?xml version="1.0" standalone="no"?><!DOCTYPE svg PUBLIC "-//W3C//DTD SVG 1.1//EN" "http://www.w3.org/Graphics/SVG/1.1/DTD/svg11.dtd"><svg t="1583652696065" class="icon" viewBox="0 0 1024 1024" version="1.1" xmlns="http://www.w3.org/2000/svg" p-id="1946" xmlns:xlink="http://www.w3.org/1999/xlink" width="200" height="200"><defs><style type="text/css"></style></defs><path d="M296.90582 339.527337c-3.611993 9.391182-5.417989 19.504762-5.417989 29.979541 0 46.23351 37.564727 83.798236 83.798236 83.798236s83.798236-37.564727 83.798236-83.798236-37.564727-83.798236-83.798236-83.798236c-10.47478 0-20.58836 1.805996-29.979541 5.417989L220.692769 166.512875c-13.364374-13.364374-35.036332-13.364374-48.400705 0-13.364374 13.364374-13.364374 35.036332 0 48.400705L296.90582 339.527337z" p-id="1947"></path><path d="M932.616578 477.866667 551.912522 97.16261c-47.317108-47.317108-124.252557-47.317108-171.569665 0L331.580952 145.924515l0.361199 0.361199c-5.05679 5.779189-7.946384 13.003175-7.946384 21.310758 0 17.698765 14.447972 32.146737 32.146737 32.146737 7.946384 0 15.53157-2.889594 21.310758-7.946384l0.361199 0.361199L426.215168 143.034921c22.033157-22.033157 57.791887-22.033157 79.463845 0L886.383069 523.738977c22.033157 22.033157 21.671958 57.791887 0 79.463845l-277.401058 277.401058c-22.033157 22.033157-57.791887 22.033157-79.463845 0L148.814109 500.261023c-22.033157-22.033157-21.671958-57.791887 0-79.463845L197.576014 372.035273l-0.361199-0.361199c5.05679-5.779189 7.946384-13.003175 7.946384-21.310758 0-17.698765-14.447972-32.146737-32.146737-32.146737-7.946384 0-15.53157 2.889594-21.310758 7.946384l-0.361199-0.361199-48.761905 48.761905c-47.317108 47.317108-47.317108 124.252557 0 171.569665l380.704056 380.704056c47.317108 47.317108 124.252557 47.317108 171.569665 0l277.401058-277.401058C979.933686 602.119224 979.933686 525.183774 932.616578 477.866667z" p-id="1948"></path></svg>