<?xml version="1.0" standalone="no"?><!DOCTYPE svg PUBLIC "-//W3C//DTD SVG 1.1//EN" "http://www.w3.org/Graphics/SVG/1.1/DTD/svg11.dtd"><svg t="1583826992593" class="icon" viewBox="0 0 1024 1024" version="1.1" xmlns="http://www.w3.org/2000/svg" p-id="1690" xmlns:xlink="http://www.w3.org/1999/xlink" width="200" height="200"><defs><style type="text/css"></style></defs><path d="M469.333 469.333v-128c0-23.564 19.103-42.666 42.667-42.666s42.667 19.102 42.667 42.666v128h128c23.564 0 42.666 19.103 42.666 42.667s-19.102 42.667-42.666 42.667h-128v128c0 23.564-19.103 42.666-42.667 42.666s-42.667-19.102-42.667-42.666v-128h-128c-23.564 0-42.666-19.103-42.666-42.667s19.102-42.667 42.666-42.667h128z m341.334-14.687c0-23.564 19.102-42.667 42.666-42.667 23.564 0 42.667 19.103 42.667 42.667v356.02C896 857.796 857.795 896 810.667 896H213.333C166.205 896 128 857.795 128 810.667V213.333C128 166.205 166.205 128 213.333 128h597.334C857.795 128 896 166.205 896 213.333v66.896c0 23.564-19.103 42.667-42.667 42.667s-42.666-19.103-42.666-42.667v-66.896H213.333v597.334h597.334V454.646z" p-id="1691"></path></svg>