<?xml version="1.0" encoding="iso-8859-1"?>
<!-- Generator: Adobe Illustrator 17.1.0, SVG Export Plug-In . SVG Version: 6.00 Build 0)  -->
<!DOCTYPE svg PUBLIC "-//W3C//DTD SVG 1.1//EN" "http://www.w3.org/Graphics/SVG/1.1/DTD/svg11.dtd">
<svg version="1.1" id="Capa_1" xmlns="http://www.w3.org/2000/svg" xmlns:xlink="http://www.w3.org/1999/xlink" x="0px" y="0px"
	 viewBox="0 0 511 511" style="enable-background:new 0 0 511 511;" xml:space="preserve">
<g>
	<path d="M487.5,111.965H148.116l43.079-43.077c4.439-4.439,6.883-10.341,6.883-16.618c0-6.277-2.445-12.179-6.885-16.618
		l-22.628-22.625c-9.162-9.161-24.07-9.161-33.232,0.001L2.197,146.162C0.79,147.568,0,149.476,0,151.465s0.79,3.897,2.197,5.303
		l133.137,133.133c4.582,4.582,10.599,6.872,16.617,6.872c6.017,0,12.035-2.291,16.615-6.871l22.628-22.625
		c4.439-4.438,6.884-10.34,6.885-16.618c0-6.277-2.444-12.179-6.883-16.618l-43.079-43.078H487.5c12.958,0,23.5-10.542,23.5-23.5
		v-32C511,122.507,500.458,111.965,487.5,111.965z M496,167.465c0,4.687-3.813,8.5-8.5,8.5H130.009c-3.034,0-5.768,1.827-6.929,4.63
		c-1.161,2.803-0.519,6.028,1.626,8.173l55.883,55.881c1.605,1.605,2.49,3.74,2.49,6.01s-0.885,4.405-2.49,6.011l-22.628,22.625
		c-3.314,3.313-8.706,3.313-12.02,0L18.107,151.465L145.94,23.635c3.314-3.314,8.706-3.313,12.02,0l22.628,22.625
		c1.605,1.605,2.49,3.74,2.49,6.011s-0.884,4.405-2.49,6.011l-55.883,55.881c-2.145,2.145-2.787,5.371-1.626,8.173
		c1.161,2.803,3.896,4.63,6.929,4.63H487.5c4.687,0,8.5,3.813,8.5,8.5V167.465z"/>
	<path d="M375.667,221.099c-9.162-9.161-24.07-9.162-33.232,0l-22.628,22.624c-4.439,4.438-6.884,10.34-6.884,16.618
		c0,6.277,2.444,12.179,6.883,16.618l43.079,43.078H23.5c-12.958,0-23.5,10.542-23.5,23.5v32c0,12.958,10.542,23.5,23.5,23.5
		h339.383l-43.079,43.077c-4.438,4.439-6.883,10.341-6.882,16.618c0,6.277,2.445,12.179,6.884,16.617l22.628,22.625
		c4.581,4.581,10.598,6.871,16.616,6.871c6.018,0,12.036-2.291,16.617-6.872l133.136-133.133c1.407-1.406,2.197-3.314,2.197-5.303
		s-0.79-3.897-2.197-5.303L375.667,221.099z M365.061,487.365c-3.314,3.314-8.706,3.314-12.021,0l-22.628-22.625
		c-1.605-1.605-2.49-3.74-2.49-6.01c0-2.271,0.884-4.406,2.489-6.011l55.883-55.88c2.145-2.145,2.787-5.371,1.626-8.173
		c-1.161-2.803-3.896-4.63-6.929-4.63H23.5c-4.687,0-8.5-3.813-8.5-8.5v-32c0-4.687,3.813-8.5,8.5-8.5h357.491
		c3.034,0,5.768-1.827,6.929-4.63c1.161-2.803,0.519-6.028-1.626-8.173l-55.883-55.881c-1.605-1.605-2.49-3.74-2.489-6.011
		c0-2.271,0.884-4.405,2.49-6.011l22.628-22.625c3.314-3.313,8.707-3.313,12.021,0l127.833,127.83L365.061,487.365z"/>
	<path d="M463.5,143.965h-16c-4.142,0-7.5,3.358-7.5,7.5s3.358,7.5,7.5,7.5h16c4.142,0,7.5-3.358,7.5-7.5
		S467.642,143.965,463.5,143.965z"/>
	<path d="M415.5,143.965h-112c-4.142,0-7.5,3.358-7.5,7.5s3.358,7.5,7.5,7.5h112c4.142,0,7.5-3.358,7.5-7.5
		S419.642,143.965,415.5,143.965z"/>
	<path d="M199.5,351.965h-16c-4.142,0-7.5,3.358-7.5,7.5s3.358,7.5,7.5,7.5h16c4.142,0,7.5-3.358,7.5-7.5
		S203.642,351.965,199.5,351.965z"/>
	<path d="M151.5,351.965h-112c-4.142,0-7.5,3.358-7.5,7.5s3.358,7.5,7.5,7.5h112c4.142,0,7.5-3.358,7.5-7.5
		S155.642,351.965,151.5,351.965z"/>
	<path d="M157.928,57.518c2.929-2.929,2.929-7.678,0-10.606c-2.929-2.929-7.678-2.929-10.606,0l-32,32
		c-2.929,2.929-2.929,7.678,0,10.606c1.464,1.464,3.384,2.197,5.303,2.197s3.839-0.732,5.303-2.197L157.928,57.518z"/>
	<path d="M354.863,256.162c-2.929,2.929-2.929,7.678,0,10.606l32,32c1.464,1.464,3.384,2.197,5.303,2.197s3.839-0.732,5.303-2.197
		c2.929-2.929,2.929-7.678,0-10.606l-32-32C362.541,253.233,357.792,253.233,354.863,256.162z"/>
</g>
<g>
</g>
<g>
</g>
<g>
</g>
<g>
</g>
<g>
</g>
<g>
</g>
<g>
</g>
<g>
</g>
<g>
</g>
<g>
</g>
<g>
</g>
<g>
</g>
<g>
</g>
<g>
</g>
<g>
</g>
</svg>
