<?xml version="1.0" encoding="iso-8859-1"?>
<!-- Generator: Adobe Illustrator 18.0.0, SVG Export Plug-In . SVG Version: 6.00 Build 0)  -->
<!DOCTYPE svg PUBLIC "-//W3C//DTD SVG 1.1//EN" "http://www.w3.org/Graphics/SVG/1.1/DTD/svg11.dtd">
<svg version="1.1" id="Capa_1" xmlns="http://www.w3.org/2000/svg" xmlns:xlink="http://www.w3.org/1999/xlink" x="0px" y="0px"
	 viewBox="0 0 486.928 486.928" style="enable-background:new 0 0 486.928 486.928;" xml:space="preserve">
<g>
	<path d="M175.772,336.649l-57.105-35.255l5.898-16.211l-0.674,0.268c-4.9,1.952-10.073,2.917-15.215,2.917
		c-7.358,0-14.686-1.977-21.16-5.856c-10.99-6.596-18.285-17.955-19.715-30.704l-8.178-73.113c-0.138-1.235-0.012-2.428-0.039-3.647
		l-34.056,93.615c-4.884,13.423-1.038,26.572,2.579,39.311c0.72,2.536,23.996,67.182,23.996,67.182L5.639,438.017
		c-9.448,12.781-6.748,30.809,6.041,40.264c5.142,3.808,11.135,5.639,17.095,5.639c8.821,0,17.53-4.041,23.169-11.681l55.785-75.467
		c5.816-7.857,7.23-18.124,3.792-27.266l-2.382-6.318l21.229,13.106l-6.925,76.23c-1.43,15.834,10.234,29.836,26.076,31.274
		c0.885,0.08,1.768,0.12,2.636,0.12c14.733,0,27.281-11.239,28.647-26.189l8.531-93.976
		C190.313,352.885,185.075,342.385,175.772,336.649z"/>
	<path d="M141.373,169.552l2.185,19.521l18.009-7.175c5.928-24.146-6.916-49.377-30.83-58.073
		c-22.824-8.316-47.663,1.317-59.438,21.593c6.393-6.512,14.845-11.078,24.621-12.17
		C118.574,130.67,138.851,146.978,141.373,169.552z"/>
	<path d="M141.63,104.809c28.117,0,50.9-22.79,50.9-50.899c0-28.109-22.782-50.901-50.9-50.901
		c-28.101,0-50.885,22.792-50.885,50.901C90.745,82.019,113.528,104.809,141.63,104.809z"/>
	<path d="M465.333,301.173H313.146c-11.922,0-21.594,9.665-21.594,21.594v60.669c0,11.93,9.672,21.594,21.594,21.594h152.188
		c11.922,0,21.595-9.665,21.595-21.594v-60.669C486.928,310.838,477.255,301.173,465.333,301.173z"/>
	<path d="M295.665,271.353H380.5c11.922,0,21.595-9.664,21.595-21.594v-54.042c0-11.93-9.673-21.594-21.595-21.594h-84.835
		c-11.922,0-21.594,9.665-21.594,21.594v54.042C274.071,261.689,283.743,271.353,295.665,271.353z"/>
	<path d="M445.796,427.653H256.59V239.476c0-9.085-7.358-16.452-16.452-16.452h-7.542h-17.201c2.285-5.676,2.522-12.189,0.08-18.325
		c-5.045-12.669-19.457-18.782-32.054-13.793l-53.809,21.434l-4.596-40.955c-1.51-13.553-13.737-23.354-27.266-21.787
		c-13.545,1.518-23.297,13.721-21.771,27.266l8.179,73.113c0.852,7.656,5.222,14.469,11.825,18.429
		c3.889,2.33,8.274,3.511,12.693,3.511c3.084,0,6.186-0.578,9.126-1.751l53.62-21.355c2.98,4.201,7.64,7.12,13.187,7.12h13.41
		h25.665v188.177c0,9.086,7.359,16.453,16.453,16.453h20.084c2.518,12.445,13.51,21.819,26.704,21.819
		c13.192,0,24.184-9.375,26.701-21.819h61.764c2.519,12.445,13.509,21.819,26.704,21.819c13.191,0,24.184-9.375,26.701-21.819h17
		c9.094,0,16.453-7.367,16.453-16.453C462.249,435.02,454.89,427.653,445.796,427.653z"/>
</g>
<g>
</g>
<g>
</g>
<g>
</g>
<g>
</g>
<g>
</g>
<g>
</g>
<g>
</g>
<g>
</g>
<g>
</g>
<g>
</g>
<g>
</g>
<g>
</g>
<g>
</g>
<g>
</g>
<g>
</g>
</svg>
